<svg width="256" height="256" viewBox="0 0 256 256" xmlns="http://www.w3.org/2000/svg">
  <defs>
    <linearGradient y1="0%" y2="100%" x1="0%" x2="0%" id="bgg">
      <stop offset="5%" stop-color="#512BD4" />
      <stop offset="95%" stop-color="#74DEEE" />
    </linearGradient>
  </defs>
  <!-- Background -->
  <rect x="0" y="0" width="256" height="256" rx="48" ry="48" fill="url('#bgg')" />
  <rect x="16" y="16" width="224" height="224" rx="32" ry="32" fill="#222" />
  <!-- Terminal Prompt -->
  <g transform="translate(48 112)">
    <path d="m0,0l24,16l-24,16" stroke="#FFFFFF" stroke-width="8" fill="none" stroke-linecap="round"
      stroke-linejoin="round" />
    <path fill="#fff" transform="scale(0.16) translate(256 -46)"
      d="m303.935 88.479c-6.598 41.362-27.653 79.041-59.42 106.335s-72.185 42.433-114.064 42.723a200.94 200.94 0 00106.23-12.887c.457-.318.914.317.61.78a158.177 158.177 0 01-123.225 50.396 111.185 111.185 0 01-80.961-32.871A111.215 111.215 0 01.89 161.723a115.099 115.099 0 0146.223-92.17A112.704 112.704 0 01113.61 47.6h35.772a100.637 100.637 0 0074.247-32.784 1.39 1.39 0 01.755-.431 1.418 1.418 0 011.52.663c.153.257.222.555.197.854a100.93 100.93 0 01-15.608 45.14 1.386 1.386 0 00.115 1.511 1.387 1.387 0 001.424.507A108.158 108.158 0 00287.23 1.047c.173-.277.411-.507.695-.67a1.902 1.902 0 011.869 0c.284.162.523.392.694.67a137.098 137.098 0 0113.447 87.432z" />
  </g>
</svg>